<svg id="visual" viewBox="0 0 960 360" width="960" height="360" xmlns="http://www.w3.org/2000/svg" xmlns:xlink="http://www.w3.org/1999/xlink" version="1.1"><rect x="0" y="0" width="960" height="360" fill="#dfffe9"></rect><path d="M0 199L87 108L175 218L262 182L349 196L436 199L524 162L611 207L698 152L785 119L873 178L960 212L960 361L873 361L785 361L698 361L611 361L524 361L436 361L349 361L262 361L175 361L87 361L0 361Z" fill="#0af5d1"></path><path d="M0 197L87 154L175 239L262 233L349 198L436 152L524 215L611 160L698 219L785 198L873 153L960 222L960 361L873 361L785 361L698 361L611 361L524 361L436 361L349 361L262 361L175 361L87 361L0 361Z" fill="#00d3e0"></path><path d="M0 268L87 260L175 262L262 241L349 252L436 231L524 259L611 193L698 241L785 193L873 218L960 229L960 361L873 361L785 361L698 361L611 361L524 361L436 361L349 361L262 361L175 361L87 361L0 361Z" fill="#00aeda"></path><path d="M0 285L87 232L175 262L262 247L349 272L436 256L524 255L611 281L698 245L785 253L873 254L960 282L960 361L873 361L785 361L698 361L611 361L524 361L436 361L349 361L262 361L175 361L87 361L0 361Z" fill="#0088c3"></path><path d="M0 299L87 283L175 306L262 290L349 268L436 302L524 277L611 305L698 290L785 267L873 274L960 293L960 361L873 361L785 361L698 361L611 361L524 361L436 361L349 361L262 361L175 361L87 361L0 361Z" fill="#0062a8"></path><path d="M0 317L87 338L175 298L262 336L349 298L436 317L524 322L611 340L698 323L785 304L873 322L960 297L960 361L873 361L785 361L698 361L611 361L524 361L436 361L349 361L262 361L175 361L87 361L0 361Z" fill="#003d87"></path></svg>